<?xml version="1.0" encoding="utf-8"?>
<!-- Generator: Adobe Illustrator 22.1.0, SVG Export Plug-In . SVG Version: 6.00 Build 0)  -->
<svg version="1.1" id="Layer_1" xmlns="http://www.w3.org/2000/svg" xmlns:xlink="http://www.w3.org/1999/xlink" x="0px" y="0px"
	 viewBox="0 0 334 111" style="enable-background:new 0 0 334 111;" xml:space="preserve">
<style type="text/css">
	.st0{fill:#303247;}
</style>
<g>
	<g>
		<path class="st0" d="M332.3,12.3l-15,6.6c-36.7,16.2-64.9,7.8-97.5-1.9c-15.9-4.7-32.3-9.6-50.9-12C137.2,0.8,87.1-1.2,66.8,23.6
			c7.2,3,7.5,3,13.7,5.2C95,16.3,123.2,15.1,142.3,16c-5.1,6.6-17.6,11.3-27.9,13.4c17.4,3.1,32.1,1.3,46.6-11.9
			c2,0.2,4,0.4,6.1,0.7c17.6,2.3,33.5,7,48.8,11.6c11.2,3.3,22.2,6.6,33.5,8.8c-10.8,9.1-26.6,16.3-26.6,16.3
			c12.3,5.3,25,14,32.2,19.4c-14.6,6.7-30.7,11.7-47.4,14.8c-20.9-8.5-31.4-9.4-47.6-11.3c16.5,8.7,13.8,7.1,24.1,14.4
			c-5.9,0.4-11.7,0.7-17.6,0.6C120.1,92.3,86.6,75,76.1,56.7c43.1,12.6,89.4,7.6,111-2.3C83.1,50.9,48.1,28.9-0.3,5.7
			c16.5,21.6,36.6,35.2,60.3,45.2c5,26.5,43.3,54.5,106.4,55.2c10.7,0.1,21.5-0.6,32.1-2.1c0.1,0.1,0.2,0.2,0.2,0.2l0.1-0.2
			c35.1-4.7,68.6-17.4,93.6-36.1c16.4-12.2,28.1-26.2,33.8-40.4L332.3,12.3z M326.2,27.5"/>
	</g>
</g>
</svg>
