<svg
              viewBox="0 0 21 20"
              xmlns="http://www.w3.org/2000/svg"
              xml:space="preserve"
              xmlns:xlink="http://www.w3.org/1999/xlink"
            >
              <path
                d="M0.8,6.6h4.2V20H0.8V6.6z M2.9,0c1.3,0,2.4,1.1,2.4,2.4c0,1.3-1.1,2.4-2.4,2.4c-1.3,0-2.4-1.1-2.4-2.4                                            C0.5,1.1,1.5,0,2.9,0"
              ></path>
              <path
                d="M7.5,6.6h4v1.8h0.1c0.6-1.1,1.9-2.2,3.9-2.2c4.2,0,5,2.8,5,6.4V20h-4.2v-6.5c0-1.5,0-3.5-2.2-3.5                                            c-2.2,0-2.5,1.7-2.5,3.4V20H7.5V6.6z"
              ></path>
</svg>
