<svg fill="#fff" version="1.1" xmlns="http://www.w3.org/2000/svg" xmlns:xlink="http://www.w3.org/1999/xlink" viewBox="0 0 67.7 53.6" xml:space="preserve" class="quote-mark"><path d="M19.2,1.2l9.8,8c-5.7,3-12.3,10.5-13.9,16.9c0.7-0.4,2.1-0.5,3.6-0.5c6.8,0,12.1,5.2,12.1,12.8&#10;&#9;&#9;&#9;&#9;&#9;&#9;&#9;&#9;c0,7.6-6.4,14.1-14.1,14.1c-8.4,0-15.8-6.6-15.8-18.1C0.9,20.9,8.2,9,19.2,1.2z M55.5,1.2l9.8,8c-5.7,3-12.5,10.5-13.9,16.9&#10;&#9;&#9;&#9;&#9;&#9;&#9;&#9;&#9;c0.5-0.4,2.1-0.5,3.6-0.5c6.8,0,11.9,5.2,11.9,12.8c0,7.6-6.2,14.1-13.9,14.1c-8.4,0-15.8-6.6-15.8-18.1C37.2,20.9,44.5,9,55.5,1.2&#10;&#9;&#9;&#9;&#9;&#9;&#9;&#9;&#9;z" class="st0"/></svg>
