 <svg
              viewBox="0 0 25 20"
              xmlns="http://www.w3.org/2000/svg"
              xml:space="preserve"
              xmlns:xlink="http://www.w3.org/1999/xlink"
            >
              <path
                d="M7.7,20c9.3,0,14.4-7.7,14.4-14.4c0-0.2,0-0.4,0-0.7c1-0.7,1.8-1.6,2.5-2.6c-0.9,0.4-1.9,0.7-2.9,0.8                                            c1-0.6,1.8-1.6,2.2-2.8c-1,0.6-2.1,1-3.2,1.2C19.8,0.6,18.5,0,17,0c-2.8,0-5,2.3-5,5c0,0.4,0,0.8,0.1,1.2C7.9,6,4.2,4,1.7,0.9                                            C1.3,1.7,1,2.5,1,3.5c0,1.8,0.9,3.3,2.2,4.2C2.4,7.6,1.7,7.4,1,7c0,0,0,0,0,0.1C1,9.5,2.7,11.6,5,12c-0.4,0.1-0.9,0.2-1.3,0.2                                            c-0.3,0-0.6,0-0.9-0.1c0.6,2,2.5,3.5,4.7,3.5c-1.7,1.4-3.9,2.2-6.3,2.2c-0.4,0-0.8,0-1.2-0.1C2.2,19.2,4.9,20,7.7,20"
              ></path>
</svg>
