<svg
              viewBox="0 0 20 20"
              xmlns="http://www.w3.org/2000/svg"
              xml:space="preserve"
              xmlns:xlink="http://www.w3.org/1999/xlink"
            >
              <path
                d="M5,18.7c1.5,0.9,3.2,1.3,5,1.3s3.5-0.4,5-1.3c1.5-0.9,2.7-2.1,3.6-3.6c0.9-1.5,1.3-3.2,1.3-5                                            c0-1.8-0.4-3.5-1.3-5c-0.9-1.5-2.1-2.8-3.6-3.6C13.5,0.4,11.8,0,10,0S6.5,0.4,5,1.3S2.3,3.4,1.4,5C0.5,6.5,0,8.2,0,10                                            c0,1.8,0.4,3.5,1.3,5C2.3,16.6,3.5,17.8,5,18.7z M10,18.5c-2,0-3.8-0.7-5.4-2l0.2,0.1c0.3-0.7,0.8-1.3,1.3-1.9s1.2-1.1,1.7-1.5                                            c0.5-0.4,1.1-0.7,1.8-1.1c0.6-0.3,1.1-0.5,1.3-0.6s0.4-0.2,0.6-0.2l0,0h0c0.9,2.2,1.5,4.4,1.8,6.5C12.3,18.3,11.2,18.5,10,18.5z                                             M17.2,14.6c-0.6,1-1.4,1.8-2.4,2.5c-0.4-2-0.9-4-1.7-6.1c1.7-0.3,3.5-0.1,5.3,0.4C18.3,12.5,17.9,13.6,17.2,14.6z M16.4,4.9                                            c0.1-0.1,0.2-0.2,0.2-0.3l0,0c1.3,1.5,1.9,3.3,1.9,5.3l-0.1,0c-0.1,0-0.2,0-0.3-0.1c-0.1,0-0.3,0-0.5-0.1S17.2,9.7,17,9.7                                            c-0.2,0-0.5,0-0.7-0.1c-0.3,0-0.5,0-0.8-0.1c-0.3,0-0.6,0-0.9,0c-0.3,0-0.6,0-1,0c-0.3,0-0.7,0-1,0.1c0,0-0.1-0.1-0.1-0.2                                            c0-0.1-0.1-0.2-0.1-0.2c-0.2-0.4-0.4-0.8-0.6-1.2c0.6-0.2,1.2-0.5,1.7-0.8s1-0.6,1.3-0.8c0.3-0.2,0.6-0.5,0.9-0.8                                            C16.1,5.2,16.3,5,16.4,4.9z M10,1.5c2.2,0,4,0.7,5.6,2.1l-0.2,0.2c-0.1,0.1-0.2,0.3-0.5,0.5c-0.3,0.3-0.5,0.5-0.9,0.7                                            c-0.3,0.2-0.7,0.5-1.3,0.8c-0.5,0.3-1.1,0.6-1.7,0.8c-1-1.8-2.1-3.5-3.2-5C8.7,1.5,9.4,1.5,10,1.5z M3.3,4.7c0.8-1.1,1.8-1.9,3-2.4                                            c1.1,1.4,2.1,3.1,3.2,4.9c-2.6,0.7-5.3,1-7.9,1C1.9,6.9,2.5,5.8,3.3,4.7z M1.5,9.7c3.1,0,6.1-0.4,8.8-1.2c0.3,0.5,0.5,1,0.7,1.4                                            c0,0-0.1,0-0.2,0.1c-0.1,0-0.1,0-0.2,0l-0.5,0.2c-0.3,0.1-0.8,0.3-1.3,0.6c-0.5,0.3-1.1,0.6-1.7,1.1c-0.6,0.4-1.2,0.9-1.9,1.6                                            c-0.6,0.7-1.2,1.4-1.6,2.2c-0.7-0.8-1.2-1.6-1.6-2.6c-0.4-1-0.6-2-0.6-3.1C1.5,9.9,1.5,9.8,1.5,9.7z"
              ></path>
</svg>
